<mxfile host="app.diagrams.net" agent="Mozilla/5.0 (Windows NT 10.0; Win64; x64) AppleWebKit/537.36 (KHTML, like Gecko) Chrome/139.0.0.0 Safari/537.36" version="28.1.2">
  <diagram name="Page-1" id="ynwBrNmP2WTE62LPFvz6">
    <mxGraphModel dx="1874" dy="544" grid="1" gridSize="10" guides="1" tooltips="1" connect="1" arrows="1" fold="1" page="1" pageScale="1" pageWidth="850" pageHeight="1100" math="0" shadow="0">
      <root>
        <mxCell id="0" />
        <mxCell id="1" parent="0" />
        <mxCell id="rwelqvevxlbQXz8gvv7h-18" value="&lt;font style=&quot;font-size: 26px; line-height: 180%; color: light-dark(rgb(0, 0, 0), rgb(93, 93, 93));&quot;&gt;&lt;b&gt;Airbnb Clone System&lt;/b&gt;&lt;/font&gt;" style="html=1;whiteSpace=wrap;" vertex="1" parent="1">
          <mxGeometry x="80" y="120" width="620" height="400" as="geometry" />
        </mxCell>
        <mxCell id="rwelqvevxlbQXz8gvv7h-24" style="rounded=0;orthogonalLoop=1;jettySize=auto;html=1;endArrow=none;endFill=0;" edge="1" parent="1" target="rwelqvevxlbQXz8gvv7h-9">
          <mxGeometry relative="1" as="geometry">
            <mxPoint x="10" y="290" as="sourcePoint" />
          </mxGeometry>
        </mxCell>
        <mxCell id="rwelqvevxlbQXz8gvv7h-2" value="&lt;b&gt;&lt;font style=&quot;font-size: 14px;&quot;&gt;Guest&lt;/font&gt;&lt;/b&gt;" style="shape=umlActor;verticalLabelPosition=bottom;verticalAlign=top;html=1;" vertex="1" parent="1">
          <mxGeometry x="-20" y="260" width="30" height="60" as="geometry" />
        </mxCell>
        <mxCell id="rwelqvevxlbQXz8gvv7h-3" value="&lt;b&gt;&lt;font style=&quot;font-size: 14px;&quot;&gt;Email Service&lt;/font&gt;&lt;/b&gt;" style="shape=umlActor;verticalLabelPosition=bottom;verticalAlign=top;html=1;" vertex="1" parent="1">
          <mxGeometry x="-20" y="570" width="30" height="60" as="geometry" />
        </mxCell>
        <mxCell id="rwelqvevxlbQXz8gvv7h-25" style="rounded=0;orthogonalLoop=1;jettySize=auto;html=1;entryX=0.5;entryY=0;entryDx=0;entryDy=0;endArrow=none;endFill=0;" edge="1" parent="1" target="rwelqvevxlbQXz8gvv7h-9">
          <mxGeometry relative="1" as="geometry">
            <mxPoint x="740" y="140" as="sourcePoint" />
          </mxGeometry>
        </mxCell>
        <mxCell id="rwelqvevxlbQXz8gvv7h-30" style="rounded=0;orthogonalLoop=1;jettySize=auto;html=1;entryX=1;entryY=0.5;entryDx=0;entryDy=0;endArrow=none;endFill=0;" edge="1" parent="1" target="rwelqvevxlbQXz8gvv7h-14">
          <mxGeometry relative="1" as="geometry">
            <mxPoint x="740" y="140" as="sourcePoint" />
          </mxGeometry>
        </mxCell>
        <mxCell id="rwelqvevxlbQXz8gvv7h-4" value="&lt;b&gt;&lt;font style=&quot;font-size: 14px;&quot;&gt;Host&lt;/font&gt;&lt;/b&gt;" style="shape=umlActor;verticalLabelPosition=bottom;verticalAlign=top;html=1;" vertex="1" parent="1">
          <mxGeometry x="740" y="90" width="30" height="60" as="geometry" />
        </mxCell>
        <mxCell id="rwelqvevxlbQXz8gvv7h-5" value="&lt;b&gt;&lt;font style=&quot;font-size: 14px;&quot;&gt;Payment Gateway&lt;/font&gt;&lt;/b&gt;" style="shape=umlActor;verticalLabelPosition=bottom;verticalAlign=top;html=1;" vertex="1" parent="1">
          <mxGeometry x="580" y="640" width="30" height="60" as="geometry" />
        </mxCell>
        <mxCell id="rwelqvevxlbQXz8gvv7h-9" value="&lt;div style=&quot;line-height: 90%;&quot;&gt;Register Account&lt;/div&gt;" style="ellipse;whiteSpace=wrap;html=1;" vertex="1" parent="1">
          <mxGeometry x="90" y="140" width="140" height="70" as="geometry" />
        </mxCell>
        <mxCell id="rwelqvevxlbQXz8gvv7h-41" value="" style="edgeStyle=orthogonalEdgeStyle;rounded=0;orthogonalLoop=1;jettySize=auto;html=1;endArrow=none;endFill=0;" edge="1" parent="1" source="rwelqvevxlbQXz8gvv7h-10" target="rwelqvevxlbQXz8gvv7h-11">
          <mxGeometry relative="1" as="geometry" />
        </mxCell>
        <mxCell id="rwelqvevxlbQXz8gvv7h-10" value="Search Properties" style="ellipse;whiteSpace=wrap;html=1;" vertex="1" parent="1">
          <mxGeometry x="100" y="260" width="140" height="70" as="geometry" />
        </mxCell>
        <mxCell id="rwelqvevxlbQXz8gvv7h-11" value="Leave Review" style="ellipse;whiteSpace=wrap;html=1;" vertex="1" parent="1">
          <mxGeometry x="100" y="430" width="140" height="70" as="geometry" />
        </mxCell>
        <mxCell id="rwelqvevxlbQXz8gvv7h-12" value="Login" style="ellipse;whiteSpace=wrap;html=1;" vertex="1" parent="1">
          <mxGeometry x="290" y="160" width="140" height="70" as="geometry" />
        </mxCell>
        <mxCell id="rwelqvevxlbQXz8gvv7h-13" value="Book Property" style="ellipse;whiteSpace=wrap;html=1;" vertex="1" parent="1">
          <mxGeometry x="210" y="310" width="140" height="70" as="geometry" />
        </mxCell>
        <mxCell id="rwelqvevxlbQXz8gvv7h-14" value="&lt;br&gt;Create Property Listing" style="ellipse;whiteSpace=wrap;html=1;" vertex="1" parent="1">
          <mxGeometry x="450" y="170" width="140" height="70" as="geometry" />
        </mxCell>
        <mxCell id="rwelqvevxlbQXz8gvv7h-15" value="&lt;div style=&quot;line-height: 80%;&quot;&gt;Manage Bookings&lt;br&gt;&lt;br&gt;&lt;/div&gt;" style="ellipse;whiteSpace=wrap;html=1;" vertex="1" parent="1">
          <mxGeometry x="550" y="300" width="140" height="70" as="geometry" />
        </mxCell>
        <mxCell id="rwelqvevxlbQXz8gvv7h-16" value="Admin Dashboard" style="ellipse;whiteSpace=wrap;html=1;" vertex="1" parent="1">
          <mxGeometry x="370" y="410" width="140" height="70" as="geometry" />
        </mxCell>
        <mxCell id="rwelqvevxlbQXz8gvv7h-23" value="&lt;b&gt;&lt;font style=&quot;font-size: 14px;&quot;&gt;SMS Service&lt;/font&gt;&lt;/b&gt;" style="shape=umlActor;verticalLabelPosition=bottom;verticalAlign=top;html=1;" vertex="1" parent="1">
          <mxGeometry x="330" y="630" width="30" height="60" as="geometry" />
        </mxCell>
        <mxCell id="rwelqvevxlbQXz8gvv7h-26" style="rounded=0;orthogonalLoop=1;jettySize=auto;html=1;entryX=0.932;entryY=0.708;entryDx=0;entryDy=0;entryPerimeter=0;endArrow=none;endFill=0;" edge="1" parent="1" target="rwelqvevxlbQXz8gvv7h-15">
          <mxGeometry relative="1" as="geometry">
            <mxPoint x="740" y="140" as="sourcePoint" />
          </mxGeometry>
        </mxCell>
        <mxCell id="rwelqvevxlbQXz8gvv7h-27" value="&lt;b&gt;&lt;font style=&quot;font-size: 14px;&quot;&gt;Admin&lt;/font&gt;&lt;/b&gt;" style="shape=umlActor;verticalLabelPosition=bottom;verticalAlign=top;html=1;" vertex="1" parent="1">
          <mxGeometry x="750" y="530" width="30" height="60" as="geometry" />
        </mxCell>
        <mxCell id="rwelqvevxlbQXz8gvv7h-28" style="rounded=0;orthogonalLoop=1;jettySize=auto;html=1;entryX=1;entryY=1;entryDx=0;entryDy=0;endArrow=none;endFill=0;" edge="1" parent="1" source="rwelqvevxlbQXz8gvv7h-27" target="rwelqvevxlbQXz8gvv7h-16">
          <mxGeometry relative="1" as="geometry" />
        </mxCell>
        <mxCell id="rwelqvevxlbQXz8gvv7h-31" style="rounded=0;orthogonalLoop=1;jettySize=auto;html=1;entryX=0.106;entryY=0.216;entryDx=0;entryDy=0;entryPerimeter=0;endArrow=none;endFill=0;" edge="1" parent="1" target="rwelqvevxlbQXz8gvv7h-11">
          <mxGeometry relative="1" as="geometry">
            <mxPoint x="10" y="290" as="sourcePoint" />
          </mxGeometry>
        </mxCell>
        <mxCell id="rwelqvevxlbQXz8gvv7h-32" style="rounded=0;orthogonalLoop=1;jettySize=auto;html=1;entryX=0.043;entryY=0.645;entryDx=0;entryDy=0;entryPerimeter=0;endArrow=none;endFill=0;" edge="1" parent="1" source="rwelqvevxlbQXz8gvv7h-2" target="rwelqvevxlbQXz8gvv7h-10">
          <mxGeometry relative="1" as="geometry" />
        </mxCell>
        <mxCell id="rwelqvevxlbQXz8gvv7h-34" style="rounded=0;orthogonalLoop=1;jettySize=auto;html=1;entryX=-0.013;entryY=0.629;entryDx=0;entryDy=0;entryPerimeter=0;endArrow=none;endFill=0;" edge="1" parent="1" source="rwelqvevxlbQXz8gvv7h-2" target="rwelqvevxlbQXz8gvv7h-13">
          <mxGeometry relative="1" as="geometry" />
        </mxCell>
        <mxCell id="rwelqvevxlbQXz8gvv7h-35" style="rounded=0;orthogonalLoop=1;jettySize=auto;html=1;entryX=0.083;entryY=0.756;entryDx=0;entryDy=0;entryPerimeter=0;endArrow=none;endFill=0;" edge="1" parent="1" target="rwelqvevxlbQXz8gvv7h-12">
          <mxGeometry relative="1" as="geometry">
            <mxPoint x="10" y="290" as="sourcePoint" />
          </mxGeometry>
        </mxCell>
        <mxCell id="rwelqvevxlbQXz8gvv7h-36" style="rounded=0;orthogonalLoop=1;jettySize=auto;html=1;entryX=0.94;entryY=0.28;entryDx=0;entryDy=0;entryPerimeter=0;endArrow=none;endFill=0;" edge="1" parent="1" target="rwelqvevxlbQXz8gvv7h-12">
          <mxGeometry relative="1" as="geometry">
            <mxPoint x="740" y="140" as="sourcePoint" />
          </mxGeometry>
        </mxCell>
        <mxCell id="rwelqvevxlbQXz8gvv7h-37" style="rounded=0;orthogonalLoop=1;jettySize=auto;html=1;entryX=0.773;entryY=0.899;entryDx=0;entryDy=0;entryPerimeter=0;endArrow=none;endFill=0;" edge="1" parent="1" source="rwelqvevxlbQXz8gvv7h-27" target="rwelqvevxlbQXz8gvv7h-12">
          <mxGeometry relative="1" as="geometry" />
        </mxCell>
        <mxCell id="rwelqvevxlbQXz8gvv7h-39" style="rounded=0;orthogonalLoop=1;jettySize=auto;html=1;entryX=0.614;entryY=1.057;entryDx=0;entryDy=0;entryPerimeter=0;dashed=1;fillColor=#e51400;strokeColor=#B20000;endArrow=none;endFill=0;" edge="1" parent="1" source="rwelqvevxlbQXz8gvv7h-5" target="rwelqvevxlbQXz8gvv7h-13">
          <mxGeometry relative="1" as="geometry" />
        </mxCell>
        <mxCell id="rwelqvevxlbQXz8gvv7h-40" value="&lt;b&gt;Includes&lt;/b&gt;" style="edgeLabel;html=1;align=center;verticalAlign=middle;resizable=0;points=[];" vertex="1" connectable="0" parent="rwelqvevxlbQXz8gvv7h-39">
          <mxGeometry x="-0.011" relative="1" as="geometry">
            <mxPoint as="offset" />
          </mxGeometry>
        </mxCell>
        <mxCell id="rwelqvevxlbQXz8gvv7h-42" style="rounded=0;orthogonalLoop=1;jettySize=auto;html=1;exitX=1;exitY=0.5;exitDx=0;exitDy=0;endArrow=none;endFill=0;" edge="1" parent="1" source="rwelqvevxlbQXz8gvv7h-11">
          <mxGeometry relative="1" as="geometry">
            <mxPoint x="740" y="140" as="targetPoint" />
          </mxGeometry>
        </mxCell>
      </root>
    </mxGraphModel>
  </diagram>
</mxfile>
